<svg width="256" height="256" viewBox="0 0 256 256" fill="none" xmlns="http://www.w3.org/2000/svg">
  <!-- Background with rounded corners and gradient matching the image -->
  <rect width="256" height="256" rx="60" fill="url(#bg-gradient)" />
  
  <!-- Gradient definitions -->
  <defs>
    <!-- Main background gradient - dark purple to bright pink -->
    <linearGradient id="bg-gradient" x1="0%" y1="0%" x2="100%" y2="100%">
      <stop offset="0%" style="stop-color:#2D1B69;stop-opacity:1" />
      <stop offset="20%" style="stop-color:#4A2C85;stop-opacity:1" />
      <stop offset="40%" style="stop-color:#673BA1;stop-opacity:1" />
      <stop offset="60%" style="stop-color:#844ABD;stop-opacity:1" />
      <stop offset="80%" style="stop-color:#A159D9;stop-opacity:1" />
      <stop offset="100%" style="stop-color:#BE68F5;stop-opacity:1" />
    </linearGradient>
    
    <!-- Figure gradient (bright pink/coral) -->
    <linearGradient id="figure-gradient" x1="0%" y1="0%" x2="100%" y2="100%">
      <stop offset="0%" style="stop-color:#FF6B9D;stop-opacity:1" />
      <stop offset="50%" style="stop-color:#FF4D7D;stop-opacity:1" />
      <stop offset="100%" style="stop-color:#FF3B6B;stop-opacity:1" />
    </linearGradient>
    
    <!-- Heart gradient -->
    <linearGradient id="heart-gradient" x1="0%" y1="0%" x2="100%" y2="100%">
      <stop offset="0%" style="stop-color:#FF4E7A;stop-opacity:1" />
      <stop offset="100%" style="stop-color:#FF2D5C;stop-opacity:1" />
    </linearGradient>
  </defs>
  
  <!-- Left person (male figure) -->
  <g transform="translate(50, 50)">
    <!-- Head -->
    <circle cx="25" cy="30" r="20" fill="url(#figure-gradient)" />
    <!-- Body -->
    <rect x="12" y="48" width="26" height="70" rx="13" fill="url(#figure-gradient)" />
    <!-- Arms -->
    <ellipse cx="3" cy="75" rx="6" ry="20" fill="url(#figure-gradient)" />
    <ellipse cx="47" cy="75" rx="6" ry="20" fill="url(#figure-gradient)" />
    <!-- Legs -->
    <ellipse cx="20" cy="130" rx="6" ry="20" fill="url(#figure-gradient)" />
    <ellipse cx="30" cy="130" rx="6" ry="20" fill="url(#figure-gradient)" />
  </g>
  
  <!-- Right person (female figure) -->
  <g transform="translate(156, 50)">
    <!-- Head -->
    <circle cx="25" cy="30" r="20" fill="url(#figure-gradient)" />
    <!-- Body (dress/skirt shape) -->
    <path d="M 12 48 Q 12 45 15 45 L 35 45 Q 38 45 38 48 L 42 110 Q 42 118 34 118 L 16 118 Q 8 118 8 110 Z" fill="url(#figure-gradient)" />
    <!-- Arms -->
    <ellipse cx="3" cy="75" rx="6" ry="20" fill="url(#figure-gradient)" />
    <ellipse cx="47" cy="75" rx="6" ry="20" fill="url(#figure-gradient)" />
    <!-- Legs -->
    <ellipse cx="20" cy="130" rx="6" ry="20" fill="url(#figure-gradient)" />
    <ellipse cx="30" cy="130" rx="6" ry="20" fill="url(#figure-gradient)" />
  </g>
  
  <!-- Holding hands connection -->
  <ellipse cx="128" cy="125" rx="18" ry="10" fill="url(#figure-gradient)" />
  
  <!-- Heart in the center -->
  <g transform="translate(128, 180)">
    <path d="M 0 10 C -10 0, -25 0, -25 15 C -25 30, 0 45, 0 45 C 0 45, 25 30, 25 15 C 25 0, 10 0, 0 10 Z" fill="url(#heart-gradient)" />
  </g>
</svg>